<svg width="346" height="394" viewBox="0 0 346 394" fill="none" xmlns="http://www.w3.org/2000/svg">
<g opacity="0.08">
<circle cx="42" cy="27" r="12" fill="#ABABAF"/>
<circle cx="144" cy="27" r="12" fill="#ABABAF"/>
<circle cx="178" cy="27" r="12" fill="#ABABAF"/>
<circle cx="280" cy="27" r="12" fill="#ABABAF"/>
<circle cx="8" cy="61" r="12" fill="#ABABAF"/>
<circle cx="42" cy="61" r="12" fill="#ABABAF"/>
<circle cx="110" cy="61" r="12" fill="#ABABAF"/>
<circle cx="212" cy="61" r="12" fill="#ABABAF"/>
<circle cx="246" cy="61" r="12" fill="#ABABAF"/>
<circle cx="42" cy="95" r="12" fill="#ABABAF"/>
<circle cx="76" cy="95" r="12" fill="#ABABAF"/>
<circle cx="110" cy="95" r="12" fill="#ABABAF"/>
<circle cx="144" cy="95" r="12" fill="#ABABAF"/>
<circle cx="178" cy="95" r="12" fill="#ABABAF"/>
<circle cx="212" cy="95" r="12" fill="#ABABAF"/>
<circle cx="246" cy="95" r="12" fill="#ABABAF"/>
<circle cx="280" cy="95" r="12" fill="#ABABAF"/>
<circle cx="8" cy="129" r="12" fill="#ABABAF"/>
<circle cx="76" cy="129" r="12" fill="#ABABAF"/>
<circle cx="144" cy="129" r="12" fill="#ABABAF"/>
<circle cx="178" cy="129" r="12" fill="#ABABAF"/>
<circle cx="246" cy="129" r="12" fill="#ABABAF"/>
<circle cx="42" cy="163" r="12" fill="#ABABAF"/>
<circle cx="76" cy="163" r="12" fill="#ABABAF"/>
<circle cx="144" cy="163" r="12" fill="#ABABAF"/>
<circle cx="178" cy="163" r="12" fill="#ABABAF"/>
<circle cx="212" cy="163" r="12" fill="#ABABAF"/>
<circle cx="246" cy="163" r="12" fill="#ABABAF"/>
<circle cx="8" cy="197" r="12" fill="#ABABAF"/>
<circle cx="76" cy="197" r="12" fill="#ABABAF"/>
<circle cx="110" cy="197" r="12" fill="#ABABAF"/>
<circle cx="212" cy="197" r="12" fill="#ABABAF"/>
<circle cx="280" cy="197" r="12" fill="#ABABAF"/>
<circle cx="314" cy="197" r="12" fill="#ABABAF"/>
<circle cx="42" cy="231" r="12" fill="#ABABAF"/>
<circle cx="110" cy="231" r="12" fill="#ABABAF"/>
<circle cx="144" cy="231" r="12" fill="#ABABAF"/>
<circle cx="178" cy="231" r="12" fill="#ABABAF"/>
<circle cx="280" cy="231" r="12" fill="#ABABAF"/>
<circle cx="8" cy="265" r="12" fill="#ABABAF"/>
<circle cx="42" cy="265" r="12" fill="#ABABAF"/>
<circle cx="76" cy="265" r="12" fill="#ABABAF"/>
<circle cx="110" cy="265" r="12" fill="#ABABAF"/>
<circle cx="144" cy="265" r="12" fill="#ABABAF"/>
<circle cx="212" cy="265" r="12" fill="#ABABAF"/>
<circle cx="246" cy="265" r="12" fill="#ABABAF"/>
<circle cx="280" cy="265" r="12" fill="#ABABAF"/>
<circle cx="314" cy="265" r="12" fill="#ABABAF"/>
<circle cx="76" cy="299" r="12" fill="#ABABAF"/>
<circle cx="178" cy="299" r="12" fill="#ABABAF"/>
<circle cx="212" cy="299" r="12" fill="#ABABAF"/>
<circle cx="246" cy="299" r="12" fill="#ABABAF"/>
<circle cx="8" cy="333" r="12" fill="#ABABAF"/>
<circle cx="42" cy="333" r="12" fill="#ABABAF"/>
<circle cx="110" cy="333" r="12" fill="#ABABAF"/>
<circle cx="144" cy="333" r="12" fill="#ABABAF"/>
<circle cx="212" cy="333" r="12" fill="#ABABAF"/>
<circle cx="280" cy="333" r="12" fill="#ABABAF"/>
<circle cx="314" cy="333" r="12" fill="#ABABAF"/>
<circle cx="42" cy="367" r="12" fill="#ABABAF"/>
<circle cx="110" cy="367" r="12" fill="#ABABAF"/>
<circle cx="178" cy="367" r="12" fill="#ABABAF"/>
<circle cx="212" cy="367" r="12" fill="#ABABAF"/>
<circle cx="314" cy="367" r="12" fill="#ABABAF"/>
</g>
</svg>
