<svg width="149" height="200" viewBox="0 0 149 200" fill="none" xmlns="http://www.w3.org/2000/svg">
<g opacity="0.12">
<path fill-rule="evenodd" clip-rule="evenodd" d="M20.5518 132.044L27.6647 116.789C23.2175 121.17 20.9727 126.205 20.5518 132.044M122.093 69.0149C116.924 74.3158 111.753 79.6171 106.582 84.9185C113.066 80.8657 118.224 75.5502 122.093 69.0149M133.407 26.8599C137.995 27.5084 141.439 29.1107 141.471 34.2416C141.485 36.4815 139.237 39.6233 136.964 40.4923C139.105 41.0354 139.983 41.9714 139.219 44.3477C138.589 46.3059 139.069 48.6027 138.545 50.6175C136.436 58.7449 133.979 66.799 128.296 73.2659C126.838 74.9236 123.808 75.2833 124.469 78.4846C120.715 83.1173 116.975 87.7727 111.975 91.164C110.78 91.974 109.415 92.5363 108.118 93.1941C102.638 95.9729 97.1601 98.7592 91.6524 101.484C91.2818 101.667 90.6705 101.299 90.1713 101.299C89.7363 101.299 89.3 101.457 88.8636 101.543C89.4645 104.22 86.895 103.769 85.8786 103.999C82.8163 104.692 79.6241 104.811 76.4818 105.147C76.1167 105.187 75.6419 105.049 75.3954 105.233C72.6933 107.246 69.8889 108.052 66.4526 107.073C65.2402 106.728 63.6296 107.782 62.0737 107.614C61.5984 108.131 61.2171 108.929 60.6347 109.12C54.5556 111.124 48.4444 113.03 42.2504 114.993C41.3927 117.394 36.2233 120.778 33.456 120.39C33.8339 120.989 34.1056 121.421 34.1144 121.435C33.1471 122.622 32.0202 123.553 31.476 124.75C28.6971 130.851 26.0692 136.928 25.7165 143.875C25.3545 150.992 23.9715 158.052 23.3869 165.166C23.1796 167.687 23.9075 170.312 24.4003 172.851C24.6908 174.348 24.5963 175.205 22.8258 175.396C18.1037 175.906 15.4613 174.521 14.8707 169.675C14.0724 163.126 13.3858 156.376 14.1112 149.876C15.0071 141.854 17.0834 133.911 19.239 126.097C21.5531 117.709 28.1015 112.866 35.4297 109.041C43.4448 104.854 51.9623 102.275 60.9423 101.025C71.8079 99.5128 81.9607 95.7375 91.7802 90.891C102.067 85.813 110.965 79.032 117.991 69.9773C123.359 63.0601 127.687 55.558 129.262 46.7348C130.405 40.3294 131.718 33.9545 132.973 27.57C133.023 27.3171 133.256 27.1 133.407 26.8599" fill="#FFFA80"/>
<path fill-rule="evenodd" clip-rule="evenodd" d="M100.206 54.2657C95.5767 54.5924 94.6253 54.0494 93.1035 49.9768C91.4775 45.6271 90.0621 41.1999 88.5396 36.8117C88.291 36.0965 87.8696 35.4299 87.6975 34.7018C87.3942 33.4228 87.2212 32.1145 86.9932 30.8176C88.4743 31.2425 90.2405 31.3061 91.3645 32.187C92.7126 33.244 93.9111 34.8596 94.4822 36.4782C96.5154 42.2455 98.2546 48.1159 100.206 54.2657" fill="#FFFA80"/>
<path fill-rule="evenodd" clip-rule="evenodd" d="M59.8207 67.3363C57.0782 65.0817 54.1708 62.8264 51.4584 60.356C50.8782 59.8269 51.0072 58.5173 50.8089 57.5679C51.7312 57.4055 52.6681 57.0582 53.5715 57.1318C54.4772 57.203 55.441 57.5461 56.2216 58.0267C59.7734 60.2152 63.2773 62.4841 66.7802 64.7525C67.4137 65.1622 68.0439 65.6362 68.5162 66.211C68.8397 66.6044 69.1775 67.4132 68.9914 67.6983C68.6953 68.155 67.9297 68.6353 67.428 68.5746C65.0003 68.28 62.5936 67.8069 59.8207 67.3363" fill="#FFFA80"/>
<path fill-rule="evenodd" clip-rule="evenodd" d="M55.4963 160.944C52.6895 162.23 51.081 161.63 50.1013 159.608C48.7851 156.89 47.447 154.162 46.4431 151.324C46.1223 150.414 46.8288 149.142 47.0649 148.036C48.5649 148.569 50.9194 148.691 51.4085 149.71C53.1067 153.244 54.156 157.089 55.4963 160.944" fill="#FFFA80"/>
<path fill-rule="evenodd" clip-rule="evenodd" d="M73.8927 150.843C67.5001 150.683 65.6335 145.083 62.1198 141.614C61.7982 141.296 62.0195 139.731 62.2574 139.662C63.4365 139.318 65.3704 138.7 65.8335 139.23C68.7722 142.597 71.3986 146.237 74.0981 149.81C74.2045 149.951 74.0044 150.323 73.8927 150.843" fill="#FFFA80"/>
<path fill-rule="evenodd" clip-rule="evenodd" d="M81.4352 53.9178C80.0676 53.4823 78.353 53.4197 77.3979 52.5378C74.7777 50.115 72.4168 47.3986 70.0951 44.6773C69.6007 44.098 69.7047 43.0078 69.5343 42.1523C70.4921 42.1068 71.7826 41.6426 72.3483 42.0912C74.6162 43.89 76.777 45.8641 78.7452 47.9887C80.0982 49.4487 81.0675 51.2634 82.2086 52.9203C81.9508 53.2528 81.693 53.5853 81.4352 53.9178" fill="#FFFA80"/>
<path fill-rule="evenodd" clip-rule="evenodd" d="M84.8051 124.93C83.9751 125.658 83.689 126.118 83.3171 126.202C79.4272 127.075 75.5464 128.027 71.6125 128.627C70.4962 128.797 69.2156 127.895 68.1325 127.025C73.5058 125.324 78.6487 123.114 84.8051 124.93" fill="#FFFA80"/>
</g>
</svg>
