<svg width="1623" height="1264" viewBox="0 0 1623 1264" fill="none" xmlns="http://www.w3.org/2000/svg">
<path opacity="0.64" d="M1384.5 46.8407L1330 0C1318 99.2743 1328 213.23 1449.5 338.372C1571 463.513 1555 587.257 1544 628.504C1533 669.752 1429 803.283 1402.5 928.425C1381.3 1028.54 1322.67 1133.73 1296 1173.81V1264C1340.83 1224.15 1434 1119.84 1448 1021.41C1465.5 898.363 1563 820.761 1611.5 648.08C1660 475.398 1529.5 349.558 1449.5 255.876C1385.5 180.931 1379.5 85.292 1384.5 46.8407Z" fill="#262626"/>
<path opacity="0.68" d="M1240.5 65.3584L1186 20C1174 116.133 1184 226.482 1305.5 347.664C1427 468.845 1411 588.673 1400 628.615C1389 668.558 1285 797.863 1258.5 919.044C1237.3 1015.99 1178.67 1117.85 1152 1156.67V1244C1196.83 1205.41 1290 1104.4 1304 1009.08C1321.5 889.934 1419 814.788 1467.5 647.571C1516 480.354 1385.5 358.496 1305.5 267.779C1241.5 195.205 1235.5 102.593 1240.5 65.3584Z" fill="#262626"/>
<path opacity="0.72" d="M1096.5 83.8761L1042 40C1030 132.991 1040 239.735 1161.5 356.956C1283 474.177 1267 590.089 1256 628.726C1245 667.363 1141 792.442 1114.5 909.664C1093.3 1003.44 1034.67 1101.98 1008 1139.52V1224C1052.83 1186.67 1146 1088.97 1160 996.761C1177.5 881.504 1275 808.814 1323.5 647.062C1372 485.31 1241.5 367.434 1161.5 279.681C1097.5 209.48 1091.5 119.894 1096.5 83.8761Z" fill="#262626"/>
<path opacity="0.76" d="M952.5 102.394L898 60C886 149.85 896 252.987 1017.5 366.248C1139 479.509 1123 591.504 1112 628.836C1101 666.168 997 787.022 970.5 900.283C949.3 990.892 890.667 1086.1 864 1122.38V1204C908.833 1167.93 1002 1073.53 1016 984.438C1033.5 873.075 1131 802.841 1179.5 646.553C1228 490.265 1097.5 376.372 1017.5 291.584C953.5 223.754 947.5 137.195 952.5 102.394Z" fill="#262626"/>
<path opacity="0.8" d="M808.5 120.912L754 80C742 166.708 752 266.239 873.5 375.54C995 484.841 979 592.92 968 628.947C957 664.973 853 781.602 826.5 890.903C805.3 978.343 746.667 1070.22 720 1105.23V1184C764.833 1149.19 858 1058.09 872 972.115C889.5 864.646 987 796.867 1035.5 646.044C1084 495.221 953.5 385.31 873.5 303.487C809.5 238.028 803.5 154.496 808.5 120.912Z" fill="#262626"/>
<path opacity="0.84" d="M664.5 139.429L610 100C598 183.566 608 279.491 729.5 384.832C851 490.173 835 594.336 824 629.057C813 663.779 709 776.181 682.5 881.522C661.3 965.795 602.667 1054.34 576 1088.08V1164C620.833 1130.46 714 1042.65 728 959.792C745.5 856.217 843 790.894 891.5 645.535C940 500.177 809.5 394.248 729.5 315.389C665.5 252.303 659.5 171.796 664.5 139.429Z" fill="#262626"/>
<path opacity="0.88" d="M520.5 157.947L466 120C454 200.425 464 292.743 585.5 394.124C707 495.504 691 595.752 680 629.168C669 662.584 565 770.761 538.5 872.142C517.3 953.246 458.667 1038.47 432 1070.94V1144C476.833 1111.72 570 1027.21 584 947.469C601.5 847.788 699 784.92 747.5 645.027C796 505.133 665.5 403.186 585.5 327.292C521.5 266.577 515.5 189.097 520.5 157.947Z" fill="#262626"/>
<path opacity="0.92" d="M376.5 176.465L322 140C310 217.283 320 305.996 441.5 403.416C563 500.836 547 597.168 536 629.279C525 661.389 421 765.341 394.5 862.761C373.3 940.697 314.667 1022.59 288 1053.79V1124C332.833 1092.98 426 1011.78 440 935.146C457.5 839.358 555 778.947 603.5 644.518C652 510.089 521.5 412.124 441.5 339.195C377.5 280.851 371.5 206.398 376.5 176.465Z" fill="#262626"/>
<path opacity="0.96" d="M232.5 194.982L178 160C166 234.142 176 319.248 297.5 412.708C419 506.168 403 598.584 392 629.389C381 660.195 277 759.92 250.5 853.38C229.3 928.149 170.667 1006.71 144 1036.65V1104C188.833 1074.24 282 996.338 296 922.823C313.5 830.929 411 772.973 459.5 644.009C508 515.044 377.5 421.062 297.5 351.097C233.5 295.126 227.5 223.699 232.5 194.982Z" fill="#262626"/>
<path d="M88.5 213.5L34 180C22 251 32 332.5 153.5 422C275 511.5 259 600 248 629.5C237 659 133 754.5 106.5 844C85.3 915.6 26.6667 990.833 0 1019.5V1084C44.8333 1055.5 138 980.9 152 910.5C169.5 822.5 267 767 315.5 643.5C364 520 233.5 430 153.5 363C89.5 309.4 83.5 241 88.5 213.5Z" fill="#262626"/>
</svg>
