<svg width="59" height="64" viewBox="0 0 59 64" fill="none" xmlns="http://www.w3.org/2000/svg">
<path d="M29.2633 2.44389C25.4567 2.30503 22.5089 4.9351 19.3169 6.5877C14.9755 9.16123 10.5049 11.5353 6.24986 14.2423C3.46674 16.5044 2.18802 20.1444 2.48029 23.6596C2.49649 29.892 2.448 36.1258 2.50477 42.3572C2.86517 46.1304 5.48151 49.3325 8.84823 50.911C14.2529 54.0129 19.6259 57.1725 25.0503 60.2382C28.4986 61.8106 32.5808 61.1493 35.6312 59.0219C41.0201 55.8917 46.4422 52.8169 51.8099 49.6519C54.8976 47.4536 56.3633 43.5869 56.0464 39.882C56.0302 33.6495 56.0788 27.4158 56.0219 21.1844C55.6612 17.4115 53.0453 14.2086 49.6782 12.6308C44.2735 9.52955 38.8995 6.37208 33.4754 3.30603C32.1624 2.69618 30.7041 2.44791 29.2634 2.44377M25.8694 18.1383H32.6586V45.4041H25.8694V18.1383ZM34.4128 24.0729H41.1988V45.4041H34.4128V24.0729ZM17.3271 35.2006H24.1152V45.4041H17.3271V35.2006Z" fill="#FFFEEB"/>
</svg>
