<svg width="64" height="64" viewBox="0 0 64 64" fill="none" xmlns="http://www.w3.org/2000/svg">
<path d="M58.666 37.3334H55.9994C55.9994 27.0133 47.6527 18.6667 37.3327 18.6667H34.666V15.28C35.477 14.8118 36.1504 14.1383 36.6185 13.3273C37.0866 12.5163 37.3329 11.5963 37.3327 10.6598C37.3324 9.72342 37.0856 8.80356 36.6171 7.99277C36.1486 7.18198 35.4749 6.50884 34.6636 6.04105C33.8524 5.57325 32.9324 5.32728 31.9959 5.32788C31.0595 5.32848 30.1397 5.57563 29.3291 6.04446C28.5185 6.5133 27.8456 7.1873 27.3782 7.99869C26.9107 8.81008 26.6651 9.73025 26.666 10.6667C26.666 12.64 27.7327 14.3733 29.3327 15.28V18.6667H26.666C16.346 18.6667 7.99935 27.0133 7.99935 37.3334H5.33268C3.86602 37.3334 2.66602 38.5333 2.66602 40V48C2.66602 49.4667 3.86602 50.6667 5.33268 50.6667H7.99935V53.3334C7.99935 54.7478 8.56125 56.1044 9.56145 57.1046C10.5616 58.1048 11.9182 58.6667 13.3327 58.6667H50.666C53.626 58.6667 55.9994 56.2934 55.9994 53.3334V50.6667H58.666C60.1327 50.6667 61.3327 49.4667 61.3327 48V40C61.3327 38.5333 60.1327 37.3334 58.666 37.3334ZM26.106 44C25.066 41.6534 22.746 40 19.9993 40C17.2527 40 14.9327 41.6534 13.8927 44C13.546 43.1734 13.3327 42.2934 13.3327 41.3334C13.3327 39.5652 14.0351 37.8695 15.2853 36.6193C16.5355 35.3691 18.2312 34.6667 19.9993 34.6667C21.7675 34.6667 23.4632 35.3691 24.7134 36.6193C25.9636 37.8695 26.666 39.5652 26.666 41.3334C26.666 42.2934 26.4527 43.1734 26.106 44ZM50.106 44C49.066 41.6534 46.666 40 43.9994 40C41.3327 40 38.9327 41.6534 37.8927 44C37.546 43.1734 37.3327 42.2934 37.3327 41.3334C37.3327 39.5652 38.0351 37.8695 39.2853 36.6193C40.5355 35.3691 42.2312 34.6667 43.9994 34.6667C45.7675 34.6667 47.4632 35.3691 48.7134 36.6193C49.9636 37.8695 50.666 39.5652 50.666 41.3334C50.666 42.2934 50.4527 43.1734 50.106 44Z" fill="#FFFEEB"/>
</svg>
