<svg width="214" height="14" viewBox="0 0 214 14" fill="none" xmlns="http://www.w3.org/2000/svg">
<g clip-path="url(#clip0_125_1431)">
<g clip-path="url(#clip1_125_1431)">
<path d="M157.43 8.08568C139.958 7.32267 62.6901 10.6019 46.5505 14.011C46.5505 14.1734 46.7324 14.1831 46.954 14.1734C48.81 14.0922 80.6608 11.6316 103.725 10.7967C111.198 10.5262 119.356 10.3218 127.047 9.93631C134.738 9.55089 157.43 8.08568 157.43 8.08568Z" fill="#ECBE64"/>
<path d="M207.906 2.58144C207.906 2.58144 208.068 2.61392 207.866 2.77625C207.758 2.79802 207.342 2.90611 206.292 3.10092C204.759 3.49053 143.649 2.61682 108.325 4.10742L6.52483 7.97112C5.58353 8.00286 6.28273 7.69513 6.28273 7.69513C19.3518 6.03195 32.7516 4.26978 68.2989 3.05226C92.6699 1.91641 138.026 0.824789 147.302 0.909404C161.142 0.909404 190.615 1.6991 207.906 2.58144Z" fill="#ECBE64"/>
</g>
</g>
<defs>
<clipPath id="clip0_125_1431">
<rect width="214" height="12.6209" fill="white" transform="translate(0 0.904785)"/>
</clipPath>
<clipPath id="clip1_125_1431">
<rect width="201.934" height="12.6209" fill="white" transform="translate(6.03296 0.904785)"/>
</clipPath>
</defs>
</svg>
