<svg width="23" height="18" viewBox="0 0 23 18" fill="none" xmlns="http://www.w3.org/2000/svg">
<g clip-path="url(#clip0_262_1453)">
<mask id="mask0_262_1453" style="mask-type:luminance" maskUnits="userSpaceOnUse" x="3" y="1" width="17" height="16">
<path d="M19.0254 17H3.02539V1H19.0254V17Z" fill="white"/>
</mask>
<g mask="url(#mask0_262_1453)">
<path d="M11.0264 4C10.8083 3.99973 10.5927 4.046 10.3939 4.13567C10.1952 4.22534 10.0178 4.35633 9.8737 4.52L3.333 11.9547C3.12628 12.201 3.02414 12.5185 3.04844 12.8392C3.07274 13.1599 3.22155 13.4583 3.46304 13.6707C3.70453 13.8831 4.01953 13.9926 4.3407 13.9758C4.66187 13.959 4.96371 13.8171 5.18167 13.5807L10.901 7.07933C10.9166 7.06147 10.9359 7.0472 10.9576 7.0374C10.9792 7.0276 11.0026 7.02253 11.0264 7.02253C11.0501 7.02253 11.0735 7.0276 11.0952 7.0374C11.1168 7.0472 11.136 7.06147 11.1517 7.07933L16.871 13.5807C16.9765 13.7064 17.106 13.8097 17.252 13.8847C17.398 13.9596 17.5576 14.0046 17.7212 14.017C17.8848 14.0294 18.0494 14.009 18.205 13.9569C18.3606 13.9048 18.5042 13.8221 18.6275 13.7138C18.7507 13.6054 18.851 13.4734 18.9226 13.3257C18.994 13.178 19.0353 13.0175 19.0439 12.8536C19.0525 12.6897 19.0282 12.5258 18.9726 12.3714C18.9169 12.217 18.8309 12.0753 18.7197 11.9547L12.181 4.52267C12.0366 4.3586 11.859 4.22713 11.66 4.13707C11.4608 4.04694 11.2449 4.0002 11.0264 4Z" fill="#FFFEEB"/>
</g>
</g>
<defs>
<clipPath id="clip0_262_1453">
<rect width="16" height="16" fill="white" transform="matrix(1 0 0 -1 3.02539 17)"/>
</clipPath>
</defs>
</svg>
