<svg width="16" height="16" viewBox="0 0 16 16" fill="none" xmlns="http://www.w3.org/2000/svg">
<g clip-path="url(#clip0_262_1393)">
<mask id="mask0_262_1393" style="mask-type:luminance" maskUnits="userSpaceOnUse" x="0" y="0" width="16" height="16">
<path d="M16 0H0V16H16V0Z" fill="white"/>
</mask>
<g mask="url(#mask0_262_1393)">
<path d="M8.00098 13C7.78291 13.0003 7.56731 12.954 7.36851 12.8643C7.16978 12.7747 6.99238 12.6437 6.84831 12.48L0.307614 5.04533C0.100887 4.79897 -0.00124622 4.4815 0.0230536 4.16081C0.0473533 3.84012 0.196157 3.54167 0.437647 3.32927C0.679136 3.11686 0.994143 3.00737 1.31531 3.0242C1.63648 3.04103 1.93832 3.18285 2.15628 3.41933L7.87564 9.92067C7.89124 9.93853 7.91051 9.9528 7.93218 9.9626C7.95378 9.9724 7.97724 9.97747 8.00098 9.97747C8.02471 9.97747 8.04811 9.9724 8.06978 9.9626C8.09138 9.9528 8.11064 9.93853 8.12631 9.92067L13.8456 3.41933C13.9511 3.29362 14.0806 3.19026 14.2266 3.11533C14.3726 3.0404 14.5322 2.99541 14.6958 2.98301C14.8594 2.97061 15.024 2.99105 15.1796 3.04313C15.3352 3.0952 15.4788 3.17785 15.6021 3.28624C15.7253 3.39463 15.8256 3.52655 15.8972 3.67427C15.9686 3.82198 16.0099 3.98249 16.0185 4.14638C16.0271 4.31027 16.0028 4.47422 15.9472 4.62859C15.8915 4.78297 15.8055 4.92466 15.6943 5.04533L9.15564 12.4773C9.01124 12.6414 8.83364 12.7729 8.63458 12.8629C8.43544 12.9531 8.21951 12.9998 8.00098 13Z" fill="#FFFEEB"/>
</g>
</g>
<defs>
<clipPath id="clip0_262_1393">
<rect width="16" height="16" fill="white"/>
</clipPath>
</defs>
</svg>
