<svg width="24" height="24" viewBox="0 0 24 24" fill="none" xmlns="http://www.w3.org/2000/svg">
<path d="M19.2 4.7998H4.8C3.81 4.7998 3.009 5.6098 3.009 6.5998L3 17.3998C3 18.3898 3.81 19.1998 4.8 19.1998H19.2C20.19 19.1998 21 18.3898 21 17.3998V6.5998C21 5.6098 20.19 4.7998 19.2 4.7998ZM18.84 8.6248L12.477 12.6028C12.189 12.7828 11.811 12.7828 11.523 12.6028L5.16 8.6248C5.06975 8.57414 4.99073 8.5057 4.9277 8.42361C4.86467 8.34153 4.81896 8.2475 4.79332 8.14724C4.76768 8.04697 4.76265 7.94255 4.77854 7.84028C4.79443 7.73802 4.8309 7.64004 4.88575 7.55228C4.9406 7.46451 5.01269 7.38879 5.09765 7.3297C5.18262 7.27061 5.27868 7.22936 5.38005 7.20847C5.48141 7.18758 5.58595 7.18747 5.68736 7.20816C5.78876 7.22884 5.88492 7.26988 5.97 7.3288L12 11.0998L18.03 7.3288C18.1151 7.26988 18.2112 7.22884 18.3126 7.20816C18.414 7.18747 18.5186 7.18758 18.62 7.20847C18.7213 7.22936 18.8174 7.27061 18.9023 7.3297C18.9873 7.38879 19.0594 7.46451 19.1142 7.55228C19.1691 7.64004 19.2056 7.73802 19.2215 7.84028C19.2373 7.94255 19.2323 8.04697 19.2067 8.14724C19.181 8.2475 19.1353 8.34153 19.0723 8.42361C19.0093 8.5057 18.9302 8.57414 18.84 8.6248Z" fill="#ABABAF"/>
</svg>
