<svg width="120" height="40" viewBox="0 0 120 40" fill="none" xmlns="http://www.w3.org/2000/svg">
<path d="M13.619 34.491C11.5223 34.491 9.67233 34.0593 8.069 33.196C6.46567 32.3327 5.22 31.124 4.332 29.57C3.444 28.016 3 26.1907 3 24.094V7H10.104V16.361H10.326C10.696 15.917 11.1277 15.547 11.621 15.251C12.1143 14.955 12.657 14.7453 13.249 14.622C13.841 14.474 14.47 14.4 15.136 14.4C16.838 14.4 18.3797 14.807 19.761 15.621C21.1423 16.435 22.2277 17.5697 23.017 19.025C23.831 20.4803 24.238 22.1947 24.238 24.168C24.238 25.6973 23.979 27.091 23.461 28.349C22.9677 29.607 22.2523 30.7047 21.315 31.642C20.3777 32.5547 19.2553 33.2577 17.948 33.751C16.6653 34.2443 15.2223 34.491 13.619 34.491ZM13.619 28.275C14.285 28.275 14.8647 28.1147 15.358 27.794C15.876 27.4733 16.2707 27.0293 16.542 26.462C16.838 25.87 16.986 25.204 16.986 24.464C16.986 23.7487 16.838 23.1197 16.542 22.577C16.2707 22.0343 15.876 21.6027 15.358 21.282C14.8647 20.9613 14.285 20.801 13.619 20.801C12.9777 20.801 12.398 20.9613 11.88 21.282C11.362 21.6027 10.955 22.0343 10.659 22.577C10.3877 23.1197 10.252 23.7487 10.252 24.464C10.252 25.204 10.3877 25.87 10.659 26.462C10.955 27.0293 11.362 27.4733 11.88 27.794C12.398 28.1147 12.9777 28.275 13.619 28.275Z" fill="white"/>
<path d="M37.0571 34.491C35.0591 34.491 33.3077 34.121 31.8031 33.381C30.2984 32.6163 29.1267 31.5927 28.2881 30.31C27.4494 29.0027 27.0301 27.5227 27.0301 25.87V14.844H34.0971V25.426C34.0971 25.87 34.2081 26.3017 34.4301 26.721C34.6521 27.1403 34.9727 27.4857 35.3921 27.757C35.8361 28.0037 36.3417 28.127 36.9091 28.127C37.4764 28.127 37.9574 28.0037 38.3521 27.757C38.7714 27.4857 39.0921 27.1403 39.3141 26.721C39.5361 26.3017 39.6471 25.87 39.6471 25.426V14.844H46.7511V25.87C46.7511 27.5227 46.3564 29.0027 45.5671 30.31C44.8024 31.5927 43.6924 32.6163 42.2371 33.381C40.7817 34.121 39.0551 34.491 37.0571 34.491Z" fill="white"/>
<path d="M57.7091 34.01C55.8345 34.01 54.3668 33.4797 53.3061 32.419C52.2455 31.3583 51.7151 29.9153 51.7151 28.09V14.844H58.8191V27.424C58.8191 27.6707 58.9055 27.8803 59.0781 28.053C59.2508 28.201 59.4605 28.275 59.7071 28.275H63.8881V34.01H57.7091ZM48.8291 20.246V14.844H63.8881V20.246H48.8291Z" fill="white"/>
<path d="M74.5109 34.01C72.6362 34.01 71.1685 33.4797 70.1079 32.419C69.0472 31.3583 68.5169 29.9153 68.5169 28.09V14.844H75.6209V27.424C75.6209 27.6707 75.7072 27.8803 75.8799 28.053C76.0526 28.201 76.2622 28.275 76.5089 28.275H80.6899V34.01H74.5109ZM65.6309 20.246V14.844H80.6899V20.246H65.6309Z" fill="white"/>
<path d="M93.7659 34.01C91.6199 34.01 89.7082 33.64 88.0309 32.9C86.3536 32.16 85.0216 31.087 84.0349 29.681C83.0729 28.2503 82.5919 26.5113 82.5919 24.464C82.5919 22.2193 83.0729 20.357 84.0349 18.877C84.9969 17.397 86.2426 16.287 87.7719 15.547C89.3259 14.7823 90.9539 14.4 92.6559 14.4C94.4072 14.4 95.9736 14.77 97.3549 15.51C98.7609 16.2253 99.8709 17.2613 100.685 18.618C101.524 19.9747 101.943 21.6027 101.943 23.502C101.943 23.9707 101.918 24.5133 101.869 25.13C101.82 25.722 101.746 26.2277 101.647 26.647H89.8809C89.9796 27.0663 90.1646 27.424 90.4359 27.72C90.7072 27.9913 91.0772 28.1887 91.5459 28.312C92.0146 28.4353 92.5449 28.497 93.1369 28.497H99.9819V34.01H93.7659ZM89.5479 22.725H95.3939C95.3939 22.429 95.3569 22.1453 95.2829 21.874C95.2089 21.6027 95.0856 21.356 94.9129 21.134C94.7649 20.8873 94.5799 20.6777 94.3579 20.505C94.1359 20.3077 93.8646 20.1597 93.5439 20.061C93.2479 19.9623 92.9149 19.913 92.5449 19.913C92.0762 19.913 91.6569 19.987 91.2869 20.135C90.9416 20.283 90.6456 20.4803 90.3989 20.727C90.1523 20.9737 89.9549 21.2697 89.8069 21.615C89.6836 21.9603 89.5972 22.3303 89.5479 22.725Z" fill="white"/>
<path d="M104.605 34.01V20.801C104.605 18.9757 105.136 17.5327 106.196 16.472C107.257 15.4113 108.737 14.881 110.636 14.881H116.778V20.246H113.115C112.696 20.246 112.351 20.3817 112.079 20.653C111.833 20.8997 111.709 21.2327 111.709 21.652V34.01H104.605Z" fill="white"/>
<path d="M67 6H75V13H70.5V10H67V6Z" fill="#FFC300"/>
<path d="M50 6H58V13H53.5V10H50V6Z" fill="#FFC300"/>
</svg>
